<?xml version="1.0" encoding="UTF-8" standalone="no"?>
<!DOCTYPE svg PUBLIC "-//W3C//DTD SVG 1.1//EN"
 "http://www.w3.org/Graphics/SVG/1.1/DTD/svg11.dtd">
<!-- Generated by graphviz version 2.47.0 (20210316.0004)
 -->
<!-- Title: dependencies Pages: 1 -->
<svg width="804pt" height="211pt"
 viewBox="0.00 0.00 804.00 211.00" xmlns="http://www.w3.org/2000/svg" xmlns:xlink="http://www.w3.org/1999/xlink">
<g id="graph0" class="graph" transform="scale(1 1) rotate(0) translate(4 207)">
<title>dependencies</title>
<polygon fill="white" stroke="transparent" points="-4,4 -4,-207 800,-207 800,4 -4,4"/>
<text text-anchor="start" x="377.01" y="-42.4" font-family="Times-12" font-weight="bold" font-size="14.00">Legend</text>
<polygon fill="#ffffb3" stroke="transparent" points="164,-10 164,-30 184,-30 184,-10 164,-10"/>
<text text-anchor="start" x="187.63" y="-15.4" font-family="Times-12" font-size="14.00"> &#160;Declarations</text>
<polygon fill="#8dd3c7" stroke="transparent" points="277,-10 277,-30 297,-30 297,-10 277,-10"/>
<text text-anchor="start" x="300.73" y="-15.4" font-family="Times-12" font-size="14.00"> &#160;Module</text>
<polygon fill="#80b1d3" stroke="transparent" points="363,-10 363,-30 383,-30 383,-10 363,-10"/>
<text text-anchor="start" x="386.78" y="-15.4" font-family="Times-12" font-size="14.00"> &#160;Bootstrap</text>
<polygon fill="#fdb462" stroke="transparent" points="460,-10 460,-30 480,-30 480,-10 460,-10"/>
<text text-anchor="start" x="483.67" y="-15.4" font-family="Times-12" font-size="14.00"> &#160;Providers</text>
<polygon fill="#fb8072" stroke="transparent" points="556,-10 556,-30 576,-30 576,-10 556,-10"/>
<text text-anchor="start" x="579.73" y="-15.4" font-family="Times-12" font-size="14.00"> &#160;Exports</text>
<g id="clust1" class="cluster">
<title>cluster_AdminModule</title>
<polygon fill="none" stroke="black" stroke-dasharray="1,5" points="8,-70 8,-195 788,-195 788,-70 8,-70"/>
</g>
<g id="clust3" class="cluster">
<title>cluster_AdminModule_imports</title>
<polygon fill="none" stroke="black" points="369,-78 369,-130 780,-130 780,-78 369,-78"/>
</g>
<g id="clust6" class="cluster">
<title>cluster_AdminModule_providers</title>
<polygon fill="none" stroke="black" points="16,-78 16,-130 361,-130 361,-78 16,-78"/>
</g>
<!-- AppMaterialModule -->
<g id="node1" class="node">
<title>AppMaterialModule</title>
<polygon fill="#8dd3c7" stroke="black" points="771.58,-122 768.58,-126 747.58,-126 744.58,-122 640.42,-122 640.42,-86 771.58,-86 771.58,-122"/>
<text text-anchor="middle" x="706" y="-99.8" font-family="Times,serif" font-size="14.00">AppMaterialModule</text>
</g>
<!-- AdminModule -->
<g id="node4" class="node">
<title>AdminModule</title>
<polygon fill="#8dd3c7" stroke="black" points="475.44,-187 472.44,-191 451.44,-191 448.44,-187 376.56,-187 376.56,-151 475.44,-151 475.44,-187"/>
<text text-anchor="middle" x="426" y="-164.8" font-family="Times,serif" font-size="14.00">AdminModule</text>
</g>
<!-- AppMaterialModule&#45;&gt;AdminModule -->
<g id="edge1" class="edge">
<title>AppMaterialModule&#45;&gt;AdminModule</title>
<path fill="none" stroke="black" d="M706,-122.28C706,-143.32 706,-175 706,-175 706,-175 485.41,-175 485.41,-175"/>
<polygon fill="black" stroke="black" points="485.41,-171.5 475.41,-175 485.41,-178.5 485.41,-171.5"/>
</g>
<!-- AppRoutingModule -->
<g id="node2" class="node">
<title>AppRoutingModule</title>
<polygon fill="#8dd3c7" stroke="black" points="622.27,-122 619.27,-126 598.27,-126 595.27,-122 493.73,-122 493.73,-86 622.27,-86 622.27,-122"/>
<text text-anchor="middle" x="558" y="-99.8" font-family="Times,serif" font-size="14.00">AppRoutingModule</text>
</g>
<!-- AppRoutingModule&#45;&gt;AdminModule -->
<g id="edge2" class="edge">
<title>AppRoutingModule&#45;&gt;AdminModule</title>
<path fill="none" stroke="black" d="M558,-122.02C558,-139.37 558,-163 558,-163 558,-163 485.53,-163 485.53,-163"/>
<polygon fill="black" stroke="black" points="485.53,-159.5 475.53,-163 485.53,-166.5 485.53,-159.5"/>
</g>
<!-- SharedModule -->
<g id="node3" class="node">
<title>SharedModule</title>
<polygon fill="#8dd3c7" stroke="black" points="475.42,-122 472.42,-126 451.42,-126 448.42,-122 376.58,-122 376.58,-86 475.42,-86 475.42,-122"/>
<text text-anchor="middle" x="426" y="-99.8" font-family="Times,serif" font-size="14.00">SharedModule</text>
</g>
<!-- SharedModule&#45;&gt;AdminModule -->
<g id="edge3" class="edge">
<title>SharedModule&#45;&gt;AdminModule</title>
<path fill="none" stroke="black" d="M426,-122.11C426,-122.11 426,-140.99 426,-140.99"/>
<polygon fill="black" stroke="black" points="422.5,-140.99 426,-150.99 429.5,-140.99 422.5,-140.99"/>
</g>
<!-- AgGridService -->
<g id="node5" class="node">
<title>AgGridService</title>
<ellipse fill="#fdb462" stroke="black" cx="284" cy="-104" rx="69.48" ry="18"/>
<text text-anchor="middle" x="284" y="-99.8" font-family="Times,serif" font-size="14.00">AgGridService</text>
</g>
<!-- AgGridService&#45;&gt;AdminModule -->
<g id="edge4" class="edge">
<title>AgGridService&#45;&gt;AdminModule</title>
<path fill="none" stroke="black" d="M284,-122.02C284,-139.37 284,-163 284,-163 284,-163 366.73,-163 366.73,-163"/>
<polygon fill="black" stroke="black" points="366.73,-166.5 376.73,-163 366.73,-159.5 366.73,-166.5"/>
</g>
<!-- LoggingInterceptor -->
<g id="node6" class="node">
<title>LoggingInterceptor</title>
<ellipse fill="#fdb462" stroke="black" cx="110" cy="-104" rx="86.24" ry="18"/>
<text text-anchor="middle" x="110" y="-99.8" font-family="Times,serif" font-size="14.00">LoggingInterceptor</text>
</g>
<!-- LoggingInterceptor&#45;&gt;AdminModule -->
<g id="edge5" class="edge">
<title>LoggingInterceptor&#45;&gt;AdminModule</title>
<path fill="none" stroke="black" d="M110,-122.28C110,-143.32 110,-175 110,-175 110,-175 366.62,-175 366.62,-175"/>
<polygon fill="black" stroke="black" points="366.63,-178.5 376.62,-175 366.62,-171.5 366.63,-178.5"/>
</g>
</g>
</svg>
