<?xml version="1.0" encoding="UTF-8" standalone="no"?>
<!DOCTYPE svg PUBLIC "-//W3C//DTD SVG 1.1//EN"
 "http://www.w3.org/Graphics/SVG/1.1/DTD/svg11.dtd">
<!-- Generated by graphviz version 2.47.0 (20210316.0004)
 -->
<!-- Title: dependencies Pages: 1 -->
<svg width="8237pt" height="284pt"
 viewBox="0.00 0.00 8237.00 284.00" xmlns="http://www.w3.org/2000/svg" xmlns:xlink="http://www.w3.org/1999/xlink">
<g id="graph0" class="graph" transform="scale(1 1) rotate(0) translate(4 280)">
<title>dependencies</title>
<polygon fill="white" stroke="transparent" points="-4,4 -4,-280 8233,-280 8233,4 -4,4"/>
<text text-anchor="start" x="4093.51" y="-42.4" font-family="Times-12" font-weight="bold" font-size="14.00">Legend</text>
<polygon fill="#ffffb3" stroke="transparent" points="3880.5,-10 3880.5,-30 3900.5,-30 3900.5,-10 3880.5,-10"/>
<text text-anchor="start" x="3904.13" y="-15.4" font-family="Times-12" font-size="14.00"> &#160;Declarations</text>
<polygon fill="#8dd3c7" stroke="transparent" points="3993.5,-10 3993.5,-30 4013.5,-30 4013.5,-10 3993.5,-10"/>
<text text-anchor="start" x="4017.23" y="-15.4" font-family="Times-12" font-size="14.00"> &#160;Module</text>
<polygon fill="#80b1d3" stroke="transparent" points="4079.5,-10 4079.5,-30 4099.5,-30 4099.5,-10 4079.5,-10"/>
<text text-anchor="start" x="4103.28" y="-15.4" font-family="Times-12" font-size="14.00"> &#160;Bootstrap</text>
<polygon fill="#fdb462" stroke="transparent" points="4176.5,-10 4176.5,-30 4196.5,-30 4196.5,-10 4176.5,-10"/>
<text text-anchor="start" x="4200.17" y="-15.4" font-family="Times-12" font-size="14.00"> &#160;Providers</text>
<polygon fill="#fb8072" stroke="transparent" points="4272.5,-10 4272.5,-30 4292.5,-30 4292.5,-10 4272.5,-10"/>
<text text-anchor="start" x="4296.23" y="-15.4" font-family="Times-12" font-size="14.00"> &#160;Exports</text>
<g id="clust1" class="cluster">
<title>cluster_AppModule</title>
<polygon fill="none" stroke="black" stroke-dasharray="1,5" points="8,-70 8,-268 8221,-268 8221,-70 8,-70"/>
</g>
<g id="clust2" class="cluster">
<title>cluster_AppModule_declarations</title>
<polygon fill="none" stroke="black" points="2172,-78 2172,-130 8213,-130 8213,-78 2172,-78"/>
</g>
<g id="clust36" class="cluster">
<title>cluster_AppModule_providers</title>
<polygon fill="none" stroke="black" points="895,-78 895,-130 2164,-130 2164,-78 895,-78"/>
</g>
<g id="clust35" class="cluster">
<title>cluster_AppModule_bootstrap</title>
<polygon fill="none" stroke="black" points="4190,-208 4190,-260 4314,-260 4314,-208 4190,-208"/>
</g>
<g id="clust34" class="cluster">
<title>cluster_AppModule_exports</title>
<polygon fill="none" stroke="black" points="3490,-208 3490,-260 4182,-260 4182,-208 3490,-208"/>
</g>
<g id="clust33" class="cluster">
<title>cluster_AppModule_imports</title>
<polygon fill="none" stroke="black" points="16,-78 16,-130 887,-130 887,-78 16,-78"/>
</g>
<!-- AgGridImageFormatterComponent -->
<g id="node1" class="node">
<title>AgGridImageFormatterComponent</title>
<polygon fill="#ffffb3" stroke="black" points="8205.28,-122 7990.72,-122 7990.72,-86 8205.28,-86 8205.28,-122"/>
<text text-anchor="middle" x="8098" y="-99.8" font-family="Times,serif" font-size="14.00">AgGridImageFormatterComponent</text>
</g>
<!-- AppModule -->
<g id="node31" class="node">
<title>AppModule</title>
<polygon fill="#8dd3c7" stroke="black" points="3895.66,-187 3892.66,-191 3871.66,-191 3868.66,-187 3812.34,-187 3812.34,-151 3895.66,-151 3895.66,-187"/>
<text text-anchor="middle" x="3854" y="-164.8" font-family="Times,serif" font-size="14.00">AppModule</text>
</g>
<!-- AgGridImageFormatterComponent&#45;&gt;AppModule -->
<g id="edge1" class="edge">
<title>AgGridImageFormatterComponent&#45;&gt;AppModule</title>
<path fill="none" stroke="black" d="M8098,-122.32C8098,-145.66 8098,-183 8098,-183 8098,-183 3905.66,-183 3905.66,-183"/>
<polygon fill="black" stroke="black" points="3905.66,-179.5 3895.66,-183 3905.66,-186.5 3905.66,-179.5"/>
</g>
<!-- AgGridTestComponent -->
<g id="node2" class="node">
<title>AgGridTestComponent</title>
<polygon fill="#ffffb3" stroke="black" points="7973.2,-122 7824.8,-122 7824.8,-86 7973.2,-86 7973.2,-122"/>
<text text-anchor="middle" x="7899" y="-99.8" font-family="Times,serif" font-size="14.00">AgGridTestComponent</text>
</g>
<!-- AgGridTestComponent&#45;&gt;AppModule -->
<g id="edge2" class="edge">
<title>AgGridTestComponent&#45;&gt;AppModule</title>
<path fill="none" stroke="black" d="M7899,-122.25C7899,-145.02 7899,-181 7899,-181 7899,-181 3905.68,-181 3905.68,-181"/>
<polygon fill="black" stroke="black" points="3905.68,-177.5 3895.68,-181 3905.68,-184.5 3905.68,-177.5"/>
</g>
<!-- AgGridToggleComponent -->
<g id="node3" class="node">
<title>AgGridToggleComponent</title>
<polygon fill="#ffffb3" stroke="black" points="7806.75,-122 7643.25,-122 7643.25,-86 7806.75,-86 7806.75,-122"/>
<text text-anchor="middle" x="7725" y="-99.8" font-family="Times,serif" font-size="14.00">AgGridToggleComponent</text>
</g>
<!-- AgGridToggleComponent&#45;&gt;AppModule -->
<g id="edge3" class="edge">
<title>AgGridToggleComponent&#45;&gt;AppModule</title>
<path fill="none" stroke="black" d="M7725,-122.01C7725,-144.49 7725,-180 7725,-180 7725,-180 3905.83,-180 3905.83,-180"/>
<polygon fill="black" stroke="black" points="3905.83,-176.5 3895.83,-180 3905.83,-183.5 3905.83,-176.5"/>
</g>
<!-- AppComponent -->
<g id="node4" class="node">
<title>AppComponent</title>
<polygon fill="#ffffb3" stroke="black" points="7624.94,-122 7519.06,-122 7519.06,-86 7624.94,-86 7624.94,-122"/>
<text text-anchor="middle" x="7572" y="-99.8" font-family="Times,serif" font-size="14.00">AppComponent</text>
</g>
<!-- AppComponent&#45;&gt;AppModule -->
<g id="edge4" class="edge">
<title>AppComponent&#45;&gt;AppModule</title>
<path fill="none" stroke="black" d="M7572,-122.29C7572,-144.21 7572,-178 7572,-178 7572,-178 3905.75,-178 3905.75,-178"/>
<polygon fill="black" stroke="black" points="3905.75,-174.5 3895.75,-178 3905.75,-181.5 3905.75,-174.5"/>
</g>
<!-- AppGateComponent -->
<g id="node5" class="node">
<title>AppGateComponent</title>
<polygon fill="#ffffb3" stroke="black" points="7500.87,-122 7369.13,-122 7369.13,-86 7500.87,-86 7500.87,-122"/>
<text text-anchor="middle" x="7435" y="-99.8" font-family="Times,serif" font-size="14.00">AppGateComponent</text>
</g>
<!-- AppGateComponent&#45;&gt;AppModule -->
<g id="edge5" class="edge">
<title>AppGateComponent&#45;&gt;AppModule</title>
<path fill="none" stroke="black" d="M7435,-122.04C7435,-143.66 7435,-177 7435,-177 7435,-177 3905.77,-177 3905.77,-177"/>
<polygon fill="black" stroke="black" points="3905.77,-173.5 3895.77,-177 3905.77,-180.5 3905.77,-173.5"/>
</g>
<!-- BarcodeScannerComponent -->
<g id="node6" class="node">
<title>BarcodeScannerComponent</title>
<polygon fill="#ffffb3" stroke="black" points="7351.56,-122 7178.44,-122 7178.44,-86 7351.56,-86 7351.56,-122"/>
<text text-anchor="middle" x="7265" y="-99.8" font-family="Times,serif" font-size="14.00">BarcodeScannerComponent</text>
</g>
<!-- BarcodeScannerComponent&#45;&gt;AppModule -->
<g id="edge6" class="edge">
<title>BarcodeScannerComponent&#45;&gt;AppModule</title>
<path fill="none" stroke="black" d="M7265,-122.28C7265,-143.32 7265,-175 7265,-175 7265,-175 3905.9,-175 3905.9,-175"/>
<polygon fill="black" stroke="black" points="3905.9,-171.5 3895.9,-175 3905.9,-178.5 3905.9,-171.5"/>
</g>
<!-- CategoriesAlternateComponent -->
<g id="node7" class="node">
<title>CategoriesAlternateComponent</title>
<polygon fill="#ffffb3" stroke="black" points="7160.78,-122 6967.22,-122 6967.22,-86 7160.78,-86 7160.78,-122"/>
<text text-anchor="middle" x="7064" y="-99.8" font-family="Times,serif" font-size="14.00">CategoriesAlternateComponent</text>
</g>
<!-- CategoriesAlternateComponent&#45;&gt;AppModule -->
<g id="edge7" class="edge">
<title>CategoriesAlternateComponent&#45;&gt;AppModule</title>
<path fill="none" stroke="black" d="M7064,-122.03C7064,-142.77 7064,-174 7064,-174 7064,-174 3905.76,-174 3905.76,-174"/>
<polygon fill="black" stroke="black" points="3905.76,-170.5 3895.76,-174 3905.76,-177.5 3905.76,-170.5"/>
</g>
<!-- CategoryItemsBoardComponent -->
<g id="node8" class="node">
<title>CategoryItemsBoardComponent</title>
<polygon fill="#ffffb3" stroke="black" points="6948.96,-122 6751.04,-122 6751.04,-86 6948.96,-86 6948.96,-122"/>
<text text-anchor="middle" x="6850" y="-99.8" font-family="Times,serif" font-size="14.00">CategoryItemsBoardComponent</text>
</g>
<!-- CategoryItemsBoardComponent&#45;&gt;AppModule -->
<g id="edge8" class="edge">
<title>CategoryItemsBoardComponent&#45;&gt;AppModule</title>
<path fill="none" stroke="black" d="M6850,-122.22C6850,-142.37 6850,-172 6850,-172 6850,-172 3905.78,-172 3905.78,-172"/>
<polygon fill="black" stroke="black" points="3905.78,-168.5 3895.78,-172 3905.78,-175.5 3905.78,-168.5"/>
</g>
<!-- CategoryItemsBoardItemComponent -->
<g id="node9" class="node">
<title>CategoryItemsBoardItemComponent</title>
<polygon fill="#ffffb3" stroke="black" points="6732.62,-122 6509.38,-122 6509.38,-86 6732.62,-86 6732.62,-122"/>
<text text-anchor="middle" x="6621" y="-99.8" font-family="Times,serif" font-size="14.00">CategoryItemsBoardItemComponent</text>
</g>
<!-- CategoryItemsBoardItemComponent&#45;&gt;AppModule -->
<g id="edge9" class="edge">
<title>CategoryItemsBoardItemComponent&#45;&gt;AppModule</title>
<path fill="none" stroke="black" d="M6621,-122.31C6621,-142.15 6621,-171 6621,-171 6621,-171 3905.81,-171 3905.81,-171"/>
<polygon fill="black" stroke="black" points="3905.81,-167.5 3895.81,-171 3905.81,-174.5 3905.81,-167.5"/>
</g>
<!-- ChangepasswordComponent -->
<g id="node10" class="node">
<title>ChangepasswordComponent</title>
<polygon fill="#ffffb3" stroke="black" points="6491.47,-122 6314.53,-122 6314.53,-86 6491.47,-86 6491.47,-122"/>
<text text-anchor="middle" x="6403" y="-99.8" font-family="Times,serif" font-size="14.00">ChangepasswordComponent</text>
</g>
<!-- ChangepasswordComponent&#45;&gt;AppModule -->
<g id="edge10" class="edge">
<title>ChangepasswordComponent&#45;&gt;AppModule</title>
<path fill="none" stroke="black" d="M6403,-122.11C6403,-141.34 6403,-169 6403,-169 6403,-169 3905.85,-169 3905.85,-169"/>
<polygon fill="black" stroke="black" points="3905.85,-165.5 3895.85,-169 3905.85,-172.5 3905.85,-165.5"/>
</g>
<!-- CurrencyFormatterDirective -->
<g id="node11" class="node">
<title>CurrencyFormatterDirective</title>
<polygon fill="#ffffb3" stroke="black" points="6296.88,-122 6121.12,-122 6121.12,-86 6296.88,-86 6296.88,-122"/>
<text text-anchor="middle" x="6209" y="-99.8" font-family="Times,serif" font-size="14.00">CurrencyFormatterDirective</text>
</g>
<!-- CurrencyFormatterDirective&#45;&gt;AppModule -->
<g id="edge11" class="edge">
<title>CurrencyFormatterDirective&#45;&gt;AppModule</title>
<path fill="none" stroke="black" d="M6209,-122.17C6209,-141.09 6209,-168 6209,-168 6209,-168 3905.87,-168 3905.87,-168"/>
<polygon fill="black" stroke="black" points="3905.87,-164.5 3895.87,-168 3905.87,-171.5 3905.87,-164.5"/>
</g>
<!-- DashboardMenuComponent -->
<g id="node12" class="node">
<title>DashboardMenuComponent</title>
<polygon fill="#ffffb3" stroke="black" points="6103.13,-122 5928.87,-122 5928.87,-86 6103.13,-86 6103.13,-122"/>
<text text-anchor="middle" x="6016" y="-99.8" font-family="Times,serif" font-size="14.00">DashboardMenuComponent</text>
</g>
<!-- DashboardMenuComponent&#45;&gt;AppModule -->
<g id="edge12" class="edge">
<title>DashboardMenuComponent&#45;&gt;AppModule</title>
<path fill="none" stroke="black" d="M6016,-122.27C6016,-140.56 6016,-166 6016,-166 6016,-166 3905.74,-166 3905.74,-166"/>
<polygon fill="black" stroke="black" points="3905.74,-162.5 3895.74,-166 3905.74,-169.5 3905.74,-162.5"/>
</g>
<!-- GridComponentPropertiesComponent -->
<g id="node13" class="node">
<title>GridComponentPropertiesComponent</title>
<polygon fill="#ffffb3" stroke="black" points="5910.58,-122 5681.42,-122 5681.42,-86 5910.58,-86 5910.58,-122"/>
<text text-anchor="middle" x="5796" y="-99.8" font-family="Times,serif" font-size="14.00">GridComponentPropertiesComponent</text>
</g>
<!-- GridComponentPropertiesComponent&#45;&gt;AppModule -->
<g id="edge13" class="edge">
<title>GridComponentPropertiesComponent&#45;&gt;AppModule</title>
<path fill="none" stroke="black" d="M5796,-122.3C5796,-140.27 5796,-165 5796,-165 5796,-165 3905.91,-165 3905.91,-165"/>
<polygon fill="black" stroke="black" points="3905.91,-161.5 3895.91,-165 3905.91,-168.5 3905.91,-161.5"/>
</g>
<!-- GridDesignerInfoComponent -->
<g id="node14" class="node">
<title>GridDesignerInfoComponent</title>
<polygon fill="#ffffb3" stroke="black" points="5663.34,-122 5482.66,-122 5482.66,-86 5663.34,-86 5663.34,-122"/>
<text text-anchor="middle" x="5573" y="-99.8" font-family="Times,serif" font-size="14.00">GridDesignerInfoComponent</text>
</g>
<!-- GridDesignerInfoComponent&#45;&gt;AppModule -->
<g id="edge14" class="edge">
<title>GridDesignerInfoComponent&#45;&gt;AppModule</title>
<path fill="none" stroke="black" d="M5573,-122.02C5573,-139.37 5573,-163 5573,-163 5573,-163 3906.07,-163 3906.07,-163"/>
<polygon fill="black" stroke="black" points="3906.07,-159.5 3896.07,-163 3906.07,-166.5 3906.07,-159.5"/>
</g>
<!-- GridManagerComponent -->
<g id="node15" class="node">
<title>GridManagerComponent</title>
<polygon fill="#ffffb3" stroke="black" points="5464.24,-122 5307.76,-122 5307.76,-86 5464.24,-86 5464.24,-122"/>
<text text-anchor="middle" x="5386" y="-99.8" font-family="Times,serif" font-size="14.00">GridManagerComponent</text>
</g>
<!-- GridManagerComponent&#45;&gt;AppModule -->
<g id="edge15" class="edge">
<title>GridManagerComponent&#45;&gt;AppModule</title>
<path fill="none" stroke="black" d="M5386,-122.03C5386,-139.06 5386,-162 5386,-162 5386,-162 3905.77,-162 3905.77,-162"/>
<polygon fill="black" stroke="black" points="3905.77,-158.5 3895.77,-162 3905.77,-165.5 3905.77,-158.5"/>
</g>
<!-- GridManagerEditComponent -->
<g id="node16" class="node">
<title>GridManagerEditComponent</title>
<polygon fill="#ffffb3" stroke="black" points="5290.07,-122 5109.93,-122 5109.93,-86 5290.07,-86 5290.07,-122"/>
<text text-anchor="middle" x="5200" y="-99.8" font-family="Times,serif" font-size="14.00">GridManagerEditComponent</text>
</g>
<!-- GridManagerEditComponent&#45;&gt;AppModule -->
<g id="edge16" class="edge">
<title>GridManagerEditComponent&#45;&gt;AppModule</title>
<path fill="none" stroke="black" d="M5200,-122.03C5200,-138.4 5200,-160 5200,-160 5200,-160 3905.76,-160 3905.76,-160"/>
<polygon fill="black" stroke="black" points="3905.76,-156.5 3895.76,-160 3905.76,-163.5 3905.76,-156.5"/>
</g>
<!-- GridMenuLayoutComponent -->
<g id="node17" class="node">
<title>GridMenuLayoutComponent</title>
<polygon fill="#ffffb3" stroke="black" points="5091.81,-122 4912.19,-122 4912.19,-86 5091.81,-86 5091.81,-122"/>
<text text-anchor="middle" x="5002" y="-99.8" font-family="Times,serif" font-size="14.00">GridMenuLayoutComponent</text>
</g>
<!-- GridMenuLayoutComponent&#45;&gt;AppModule -->
<g id="edge17" class="edge">
<title>GridMenuLayoutComponent&#45;&gt;AppModule</title>
<path fill="none" stroke="black" d="M5002,-122.01C5002,-138.05 5002,-159 5002,-159 5002,-159 3905.88,-159 3905.88,-159"/>
<polygon fill="black" stroke="black" points="3905.88,-155.5 3895.88,-159 3905.88,-162.5 3905.88,-155.5"/>
</g>
<!-- GridSettingsComponent -->
<g id="node18" class="node">
<title>GridSettingsComponent</title>
<polygon fill="#ffffb3" stroke="black" points="4894.1,-122 4741.9,-122 4741.9,-86 4894.1,-86 4894.1,-122"/>
<text text-anchor="middle" x="4818" y="-99.8" font-family="Times,serif" font-size="14.00">GridSettingsComponent</text>
</g>
<!-- GridSettingsComponent&#45;&gt;AppModule -->
<g id="edge18" class="edge">
<title>GridSettingsComponent&#45;&gt;AppModule</title>
<path fill="none" stroke="black" d="M4818,-122.24C4818,-137.57 4818,-157 4818,-157 4818,-157 3905.73,-157 3905.73,-157"/>
<polygon fill="black" stroke="black" points="3905.73,-153.5 3895.73,-157 3905.73,-160.5 3905.73,-153.5"/>
</g>
<!-- GridcomponentPropertiesDesignComponent -->
<g id="node19" class="node">
<title>GridcomponentPropertiesDesignComponent</title>
<polygon fill="#ffffb3" stroke="black" points="4723.62,-122 4458.38,-122 4458.38,-86 4723.62,-86 4723.62,-122"/>
<text text-anchor="middle" x="4591" y="-99.8" font-family="Times,serif" font-size="14.00">GridcomponentPropertiesDesignComponent</text>
</g>
<!-- GridcomponentPropertiesDesignComponent&#45;&gt;AppModule -->
<g id="edge19" class="edge">
<title>GridcomponentPropertiesDesignComponent&#45;&gt;AppModule</title>
<path fill="none" stroke="black" d="M4591,-122.19C4591,-137.18 4591,-156 4591,-156 4591,-156 3905.74,-156 3905.74,-156"/>
<polygon fill="black" stroke="black" points="3905.74,-152.5 3895.74,-156 3905.74,-159.5 3905.74,-152.5"/>
</g>
<!-- LimitValuesCardComponent -->
<g id="node20" class="node">
<title>LimitValuesCardComponent</title>
<polygon fill="#ffffb3" stroke="black" points="4440.03,-122 4261.97,-122 4261.97,-86 4440.03,-86 4440.03,-122"/>
<text text-anchor="middle" x="4351" y="-99.8" font-family="Times,serif" font-size="14.00">LimitValuesCardComponent</text>
</g>
<!-- LimitValuesCardComponent&#45;&gt;AppModule -->
<g id="edge20" class="edge">
<title>LimitValuesCardComponent&#45;&gt;AppModule</title>
<path fill="none" stroke="black" d="M4284.1,-122.05C4284.1,-136.37 4284.1,-154 4284.1,-154 4284.1,-154 3906.02,-154 3906.02,-154"/>
<polygon fill="black" stroke="black" points="3906.02,-150.5 3896.02,-154 3906.02,-157.5 3906.02,-150.5"/>
</g>
<!-- LoginComponent -->
<g id="node21" class="node">
<title>LoginComponent</title>
<polygon fill="#ffffb3" stroke="black" points="4243.28,-122 4128.72,-122 4128.72,-86 4243.28,-86 4243.28,-122"/>
<text text-anchor="middle" x="4186" y="-99.8" font-family="Times,serif" font-size="14.00">LoginComponent</text>
</g>
<!-- LoginComponent&#45;&gt;AppModule -->
<g id="edge21" class="edge">
<title>LoginComponent&#45;&gt;AppModule</title>
<path fill="none" stroke="black" d="M4151.25,-122.25C4151.25,-136.18 4151.25,-153 4151.25,-153 4151.25,-153 3905.96,-153 3905.96,-153"/>
<polygon fill="black" stroke="black" points="3905.96,-149.5 3895.96,-153 3905.96,-156.5 3905.96,-149.5"/>
</g>
<!-- OrderHeaderDemographicsBoardComponent -->
<g id="node22" class="node">
<title>OrderHeaderDemographicsBoardComponent</title>
<polygon fill="#ffffb3" stroke="black" points="4110.23,-122 3839.77,-122 3839.77,-86 4110.23,-86 4110.23,-122"/>
<text text-anchor="middle" x="3975" y="-99.8" font-family="Times,serif" font-size="14.00">OrderHeaderDemographicsBoardComponent</text>
</g>
<!-- OrderHeaderDemographicsBoardComponent&#45;&gt;AppModule -->
<g id="edge22" class="edge">
<title>OrderHeaderDemographicsBoardComponent&#45;&gt;AppModule</title>
<path fill="none" stroke="black" d="M3867.86,-122.11C3867.86,-122.11 3867.86,-140.99 3867.86,-140.99"/>
<polygon fill="black" stroke="black" points="3864.36,-140.99 3867.86,-150.99 3871.36,-140.99 3864.36,-140.99"/>
</g>
<!-- OrderTotalBoardComponent -->
<g id="node23" class="node">
<title>OrderTotalBoardComponent</title>
<polygon fill="#ffffb3" stroke="black" points="3821.74,-122 3644.26,-122 3644.26,-86 3821.74,-86 3821.74,-122"/>
<text text-anchor="middle" x="3733" y="-99.8" font-family="Times,serif" font-size="14.00">OrderTotalBoardComponent</text>
</g>
<!-- OrderTotalBoardComponent&#45;&gt;AppModule -->
<g id="edge23" class="edge">
<title>OrderTotalBoardComponent&#45;&gt;AppModule</title>
<path fill="none" stroke="black" d="M3817.02,-122.11C3817.02,-122.11 3817.02,-140.99 3817.02,-140.99"/>
<polygon fill="black" stroke="black" points="3813.52,-140.99 3817.02,-150.99 3820.52,-140.99 3813.52,-140.99"/>
</g>
<!-- RegisterAccountExistingUserWithTokenComponent -->
<g id="node24" class="node">
<title>RegisterAccountExistingUserWithTokenComponent</title>
<polygon fill="#ffffb3" stroke="black" points="3626.27,-122 3313.73,-122 3313.73,-86 3626.27,-86 3626.27,-122"/>
<text text-anchor="middle" x="3470" y="-99.8" font-family="Times,serif" font-size="14.00">RegisterAccountExistingUserWithTokenComponent</text>
</g>
<!-- RegisterAccountExistingUserWithTokenComponent&#45;&gt;AppModule -->
<g id="edge24" class="edge">
<title>RegisterAccountExistingUserWithTokenComponent&#45;&gt;AppModule</title>
<path fill="none" stroke="black" d="M3621.92,-122.25C3621.92,-136.18 3621.92,-153 3621.92,-153 3621.92,-153 3802.24,-153 3802.24,-153"/>
<polygon fill="black" stroke="black" points="3802.24,-156.5 3812.24,-153 3802.24,-149.5 3802.24,-156.5"/>
</g>
<!-- RegisterAccountMainComponent -->
<g id="node25" class="node">
<title>RegisterAccountMainComponent</title>
<polygon fill="#ffffb3" stroke="black" points="3295.46,-122 3090.54,-122 3090.54,-86 3295.46,-86 3295.46,-122"/>
<text text-anchor="middle" x="3193" y="-99.8" font-family="Times,serif" font-size="14.00">RegisterAccountMainComponent</text>
</g>
<!-- RegisterAccountMainComponent&#45;&gt;AppModule -->
<g id="edge25" class="edge">
<title>RegisterAccountMainComponent&#45;&gt;AppModule</title>
<path fill="none" stroke="black" d="M3193,-122.05C3193,-136.37 3193,-154 3193,-154 3193,-154 3802.15,-154 3802.15,-154"/>
<polygon fill="black" stroke="black" points="3802.15,-157.5 3812.15,-154 3802.15,-150.5 3802.15,-157.5"/>
</g>
<!-- ResetpasswordComponent -->
<g id="node26" class="node">
<title>ResetpasswordComponent</title>
<polygon fill="#ffffb3" stroke="black" points="3072.8,-122 2907.2,-122 2907.2,-86 3072.8,-86 3072.8,-122"/>
<text text-anchor="middle" x="2990" y="-99.8" font-family="Times,serif" font-size="14.00">ResetpasswordComponent</text>
</g>
<!-- ResetpasswordComponent&#45;&gt;AppModule -->
<g id="edge26" class="edge">
<title>ResetpasswordComponent&#45;&gt;AppModule</title>
<path fill="none" stroke="black" d="M2990,-122.19C2990,-137.18 2990,-156 2990,-156 2990,-156 3802.33,-156 3802.33,-156"/>
<polygon fill="black" stroke="black" points="3802.33,-159.5 3812.33,-156 3802.33,-152.5 3802.33,-159.5"/>
</g>
<!-- ResizeDirective -->
<g id="node27" class="node">
<title>ResizeDirective</title>
<polygon fill="#ffffb3" stroke="black" points="2889.9,-122 2784.1,-122 2784.1,-86 2889.9,-86 2889.9,-122"/>
<text text-anchor="middle" x="2837" y="-99.8" font-family="Times,serif" font-size="14.00">ResizeDirective</text>
</g>
<!-- ResizeDirective&#45;&gt;AppModule -->
<g id="edge27" class="edge">
<title>ResizeDirective&#45;&gt;AppModule</title>
<path fill="none" stroke="black" d="M2837,-122.24C2837,-137.57 2837,-157 2837,-157 2837,-157 3802.24,-157 3802.24,-157"/>
<polygon fill="black" stroke="black" points="3802.24,-160.5 3812.24,-157 3802.24,-153.5 3802.24,-160.5"/>
</g>
<!-- SplashLoadingComponent -->
<g id="node28" class="node">
<title>SplashLoadingComponent</title>
<polygon fill="#ffffb3" stroke="black" points="2766.82,-122 2601.18,-122 2601.18,-86 2766.82,-86 2766.82,-122"/>
<text text-anchor="middle" x="2684" y="-99.8" font-family="Times,serif" font-size="14.00">SplashLoadingComponent</text>
</g>
<!-- SplashLoadingComponent&#45;&gt;AppModule -->
<g id="edge28" class="edge">
<title>SplashLoadingComponent&#45;&gt;AppModule</title>
<path fill="none" stroke="black" d="M2684,-122.01C2684,-138.05 2684,-159 2684,-159 2684,-159 3802.01,-159 3802.01,-159"/>
<polygon fill="black" stroke="black" points="3802.01,-162.5 3812.01,-159 3802.01,-155.5 3802.01,-162.5"/>
</g>
<!-- TvPriceSpecialsComponent -->
<g id="node29" class="node">
<title>TvPriceSpecialsComponent</title>
<polygon fill="#ffffb3" stroke="black" points="2583.3,-122 2410.7,-122 2410.7,-86 2583.3,-86 2583.3,-122"/>
<text text-anchor="middle" x="2497" y="-99.8" font-family="Times,serif" font-size="14.00">TvPriceSpecialsComponent</text>
</g>
<!-- TvPriceSpecialsComponent&#45;&gt;AppModule -->
<g id="edge29" class="edge">
<title>TvPriceSpecialsComponent&#45;&gt;AppModule</title>
<path fill="none" stroke="black" d="M2497,-122.03C2497,-138.4 2497,-160 2497,-160 2497,-160 3802.27,-160 3802.27,-160"/>
<polygon fill="black" stroke="black" points="3802.27,-163.5 3812.27,-160 3802.27,-156.5 3802.27,-163.5"/>
</g>
<!-- TvPriceTierMenuItemsComponent -->
<g id="node30" class="node">
<title>TvPriceTierMenuItemsComponent</title>
<polygon fill="#ffffb3" stroke="black" points="2392.23,-122 2179.77,-122 2179.77,-86 2392.23,-86 2392.23,-122"/>
<text text-anchor="middle" x="2286" y="-99.8" font-family="Times,serif" font-size="14.00">TvPriceTierMenuItemsComponent</text>
</g>
<!-- TvPriceTierMenuItemsComponent&#45;&gt;AppModule -->
<g id="edge30" class="edge">
<title>TvPriceTierMenuItemsComponent&#45;&gt;AppModule</title>
<path fill="none" stroke="black" d="M2286,-122.03C2286,-139.06 2286,-162 2286,-162 2286,-162 3802.06,-162 3802.06,-162"/>
<polygon fill="black" stroke="black" points="3802.06,-165.5 3812.06,-162 3802.06,-158.5 3802.06,-165.5"/>
</g>
<!-- AgGridImageFormatterComponent  -->
<g id="node38" class="node">
<title>AgGridImageFormatterComponent </title>
<polygon fill="#fb8072" stroke="black" points="4173.78,-252 3956.22,-252 3956.22,-216 4173.78,-216 4173.78,-252"/>
<text text-anchor="middle" x="4065" y="-229.8" font-family="Times,serif" font-size="14.00">AgGridImageFormatterComponent </text>
</g>
<!-- AppModule&#45;&gt;AgGridImageFormatterComponent  -->
<g id="edge38" class="edge">
<title>AppModule&#45;&gt;AgGridImageFormatterComponent </title>
<path fill="none" stroke="black" stroke-dasharray="5,2" d="M3895.99,-186C3948.93,-186 4033.11,-186 4033.11,-186 4033.11,-186 4033.11,-205.85 4033.11,-205.85"/>
<polygon fill="black" stroke="black" points="4029.61,-205.85 4033.11,-215.85 4036.61,-205.85 4029.61,-205.85"/>
</g>
<!-- AgGridToggleComponent  -->
<g id="node39" class="node">
<title>AgGridToggleComponent </title>
<polygon fill="#fb8072" stroke="black" points="3937.75,-252 3770.25,-252 3770.25,-216 3937.75,-216 3937.75,-252"/>
<text text-anchor="middle" x="3854" y="-229.8" font-family="Times,serif" font-size="14.00">AgGridToggleComponent </text>
</g>
<!-- AppModule&#45;&gt;AgGridToggleComponent  -->
<g id="edge39" class="edge">
<title>AppModule&#45;&gt;AgGridToggleComponent </title>
<path fill="none" stroke="black" stroke-dasharray="5,2" d="M3854,-187.11C3854,-187.11 3854,-205.99 3854,-205.99"/>
<polygon fill="black" stroke="black" points="3850.5,-205.99 3854,-215.99 3857.5,-205.99 3850.5,-205.99"/>
</g>
<!-- AppMaterialModule  -->
<g id="node40" class="node">
<title>AppMaterialModule </title>
<polygon fill="#fb8072" stroke="black" points="3752.08,-252 3617.92,-252 3617.92,-216 3752.08,-216 3752.08,-252"/>
<text text-anchor="middle" x="3685" y="-229.8" font-family="Times,serif" font-size="14.00">AppMaterialModule </text>
</g>
<!-- AppModule&#45;&gt;AppMaterialModule  -->
<g id="edge40" class="edge">
<title>AppModule&#45;&gt;AppMaterialModule </title>
<path fill="none" stroke="black" stroke-dasharray="5,2" d="M3812.25,-186C3766.1,-186 3698.21,-186 3698.21,-186 3698.21,-186 3698.21,-205.85 3698.21,-205.85"/>
<polygon fill="black" stroke="black" points="3694.71,-205.85 3698.21,-215.85 3701.71,-205.85 3694.71,-205.85"/>
</g>
<!-- SharedModule  -->
<g id="node41" class="node">
<title>SharedModule </title>
<polygon fill="#fb8072" stroke="black" points="3599.92,-252 3498.08,-252 3498.08,-216 3599.92,-216 3599.92,-252"/>
<text text-anchor="middle" x="3549" y="-229.8" font-family="Times,serif" font-size="14.00">SharedModule </text>
</g>
<!-- AppModule&#45;&gt;SharedModule  -->
<g id="edge41" class="edge">
<title>AppModule&#45;&gt;SharedModule </title>
<path fill="none" stroke="black" stroke-dasharray="5,2" d="M3812.23,-184C3728.7,-184 3549,-184 3549,-184 3549,-184 3549,-205.95 3549,-205.95"/>
<polygon fill="black" stroke="black" points="3545.5,-205.95 3549,-215.95 3552.5,-205.95 3545.5,-205.95"/>
</g>
<!-- AppComponent  -->
<g id="node42" class="node">
<title>AppComponent </title>
<polygon fill="#80b1d3" stroke="black" points="4306.44,-252 4197.56,-252 4197.56,-216 4306.44,-216 4306.44,-252"/>
<text text-anchor="middle" x="4252" y="-229.8" font-family="Times,serif" font-size="14.00">AppComponent </text>
</g>
<!-- AppModule&#45;&gt;AppComponent  -->
<g id="edge42" class="edge">
<title>AppModule&#45;&gt;AppComponent </title>
<path fill="none" stroke="black" stroke-dasharray="1,5" d="M3895.68,-184C3991.73,-184 4220.46,-184 4220.46,-184 4220.46,-184 4220.46,-205.95 4220.46,-205.95"/>
<polygon fill="black" stroke="black" points="4216.96,-205.95 4220.46,-215.95 4223.96,-205.95 4216.96,-205.95"/>
</g>
<!-- AppMaterialModule -->
<g id="node32" class="node">
<title>AppMaterialModule</title>
<polygon fill="#8dd3c7" stroke="black" points="878.58,-122 875.58,-126 854.58,-126 851.58,-122 747.42,-122 747.42,-86 878.58,-86 878.58,-122"/>
<text text-anchor="middle" x="813" y="-99.8" font-family="Times,serif" font-size="14.00">AppMaterialModule</text>
</g>
<!-- AppMaterialModule&#45;&gt;AppModule -->
<g id="edge31" class="edge">
<title>AppMaterialModule&#45;&gt;AppModule</title>
<path fill="none" stroke="black" d="M813,-122.03C813,-142.77 813,-174 813,-174 813,-174 3802.17,-174 3802.17,-174"/>
<polygon fill="black" stroke="black" points="3802.17,-177.5 3812.17,-174 3802.17,-170.5 3802.17,-177.5"/>
</g>
<!-- AppRoutingModule -->
<g id="node33" class="node">
<title>AppRoutingModule</title>
<polygon fill="#8dd3c7" stroke="black" points="729.27,-122 726.27,-126 705.27,-126 702.27,-122 600.73,-122 600.73,-86 729.27,-86 729.27,-122"/>
<text text-anchor="middle" x="665" y="-99.8" font-family="Times,serif" font-size="14.00">AppRoutingModule</text>
</g>
<!-- AppRoutingModule&#45;&gt;AppModule -->
<g id="edge32" class="edge">
<title>AppRoutingModule&#45;&gt;AppModule</title>
<path fill="none" stroke="black" d="M665,-122.28C665,-143.32 665,-175 665,-175 665,-175 3802.22,-175 3802.22,-175"/>
<polygon fill="black" stroke="black" points="3802.22,-178.5 3812.22,-175 3802.22,-171.5 3802.22,-178.5"/>
</g>
<!-- DashBoardRoutingModule -->
<g id="node34" class="node">
<title>DashBoardRoutingModule</title>
<polygon fill="#8dd3c7" stroke="black" points="582.65,-122 579.65,-126 558.65,-126 555.65,-122 415.35,-122 415.35,-86 582.65,-86 582.65,-122"/>
<text text-anchor="middle" x="499" y="-99.8" font-family="Times,serif" font-size="14.00">DashBoardRoutingModule</text>
</g>
<!-- DashBoardRoutingModule&#45;&gt;AppModule -->
<g id="edge33" class="edge">
<title>DashBoardRoutingModule&#45;&gt;AppModule</title>
<path fill="none" stroke="black" d="M526.94,-122.04C526.94,-143.66 526.94,-177 526.94,-177 526.94,-177 3802.24,-177 3802.24,-177"/>
<polygon fill="black" stroke="black" points="3802.24,-180.5 3812.24,-177 3802.24,-173.5 3802.24,-180.5"/>
</g>
<!-- DashBoardRoutingModule&#45;&gt;AppModule -->
<g id="edge34" class="edge">
<title>DashBoardRoutingModule&#45;&gt;AppModule</title>
<path fill="none" stroke="black" d="M471.06,-122.29C471.06,-144.21 471.06,-178 471.06,-178 471.06,-178 3802.14,-178 3802.14,-178"/>
<polygon fill="black" stroke="black" points="3802.14,-181.5 3812.14,-178 3802.14,-174.5 3802.14,-181.5"/>
</g>
<!-- DefaultModule -->
<g id="node35" class="node">
<title>DefaultModule</title>
<polygon fill="#8dd3c7" stroke="black" points="396.53,-122 393.53,-126 372.53,-126 369.53,-122 295.47,-122 295.47,-86 396.53,-86 396.53,-122"/>
<text text-anchor="middle" x="346" y="-99.8" font-family="Times,serif" font-size="14.00">DefaultModule</text>
</g>
<!-- DefaultModule&#45;&gt;AppModule -->
<g id="edge35" class="edge">
<title>DefaultModule&#45;&gt;AppModule</title>
<path fill="none" stroke="black" d="M346,-122.01C346,-144.49 346,-180 346,-180 346,-180 3802.16,-180 3802.16,-180"/>
<polygon fill="black" stroke="black" points="3802.16,-183.5 3812.16,-180 3802.16,-176.5 3802.16,-183.5"/>
</g>
<!-- NGXMaterialModule -->
<g id="node36" class="node">
<title>NGXMaterialModule</title>
<polygon fill="#8dd3c7" stroke="black" points="277.79,-122 274.79,-126 253.79,-126 250.79,-122 140.21,-122 140.21,-86 277.79,-86 277.79,-122"/>
<text text-anchor="middle" x="209" y="-99.8" font-family="Times,serif" font-size="14.00">NGXMaterialModule</text>
</g>
<!-- NGXMaterialModule&#45;&gt;AppModule -->
<g id="edge36" class="edge">
<title>NGXMaterialModule&#45;&gt;AppModule</title>
<path fill="none" stroke="black" d="M209,-122.25C209,-145.02 209,-181 209,-181 209,-181 3802.12,-181 3802.12,-181"/>
<polygon fill="black" stroke="black" points="3802.12,-184.5 3812.12,-181 3802.12,-177.5 3802.12,-184.5"/>
</g>
<!-- SharedModule -->
<g id="node37" class="node">
<title>SharedModule</title>
<polygon fill="#8dd3c7" stroke="black" points="122.42,-122 119.42,-126 98.42,-126 95.42,-122 23.58,-122 23.58,-86 122.42,-86 122.42,-122"/>
<text text-anchor="middle" x="73" y="-99.8" font-family="Times,serif" font-size="14.00">SharedModule</text>
</g>
<!-- SharedModule&#45;&gt;AppModule -->
<g id="edge37" class="edge">
<title>SharedModule&#45;&gt;AppModule</title>
<path fill="none" stroke="black" d="M73,-122.32C73,-145.66 73,-183 73,-183 73,-183 3802.18,-183 3802.18,-183"/>
<polygon fill="black" stroke="black" points="3802.18,-186.5 3812.18,-183 3802.18,-179.5 3802.18,-186.5"/>
</g>
<!-- AppInitService -->
<g id="node43" class="node">
<title>AppInitService</title>
<ellipse fill="#fdb462" stroke="black" cx="2086" cy="-104" rx="70.06" ry="18"/>
<text text-anchor="middle" x="2086" y="-99.8" font-family="Times,serif" font-size="14.00">AppInitService</text>
</g>
<!-- AppInitService&#45;&gt;AppModule -->
<g id="edge43" class="edge">
<title>AppInitService&#45;&gt;AppModule</title>
<path fill="none" stroke="black" d="M2086,-122.02C2086,-139.37 2086,-163 2086,-163 2086,-163 3802.04,-163 3802.04,-163"/>
<polygon fill="black" stroke="black" points="3802.04,-166.5 3812.04,-163 3802.04,-159.5 3802.04,-166.5"/>
</g>
<!-- BasicAuthInterceptor -->
<g id="node44" class="node">
<title>BasicAuthInterceptor</title>
<ellipse fill="#fdb462" stroke="black" cx="1904" cy="-104" rx="94.32" ry="18"/>
<text text-anchor="middle" x="1904" y="-99.8" font-family="Times,serif" font-size="14.00">BasicAuthInterceptor</text>
</g>
<!-- BasicAuthInterceptor&#45;&gt;AppModule -->
<g id="edge44" class="edge">
<title>BasicAuthInterceptor&#45;&gt;AppModule</title>
<path fill="none" stroke="black" d="M1904,-122.3C1904,-140.27 1904,-165 1904,-165 1904,-165 3801.91,-165 3801.91,-165"/>
<polygon fill="black" stroke="black" points="3801.91,-168.5 3811.91,-165 3801.91,-161.5 3801.91,-168.5"/>
</g>
<!-- CacheClientService -->
<g id="node45" class="node">
<title>CacheClientService</title>
<ellipse fill="#fdb462" stroke="black" cx="1704" cy="-104" rx="87.95" ry="18"/>
<text text-anchor="middle" x="1704" y="-99.8" font-family="Times,serif" font-size="14.00">CacheClientService</text>
</g>
<!-- CacheClientService&#45;&gt;AppModule -->
<g id="edge45" class="edge">
<title>CacheClientService&#45;&gt;AppModule</title>
<path fill="none" stroke="black" d="M1704,-122.27C1704,-140.56 1704,-166 1704,-166 1704,-166 3802.02,-166 3802.02,-166"/>
<polygon fill="black" stroke="black" points="3802.02,-169.5 3812.02,-166 3802.02,-162.5 3802.02,-169.5"/>
</g>
<!-- ErrorInterceptor -->
<g id="node46" class="node">
<title>ErrorInterceptor</title>
<ellipse fill="#fdb462" stroke="black" cx="1525" cy="-104" rx="73.53" ry="18"/>
<text text-anchor="middle" x="1525" y="-99.8" font-family="Times,serif" font-size="14.00">ErrorInterceptor</text>
</g>
<!-- ErrorInterceptor&#45;&gt;AppModule -->
<g id="edge46" class="edge">
<title>ErrorInterceptor&#45;&gt;AppModule</title>
<path fill="none" stroke="black" d="M1525,-122.17C1525,-141.09 1525,-168 1525,-168 1525,-168 3802.09,-168 3802.09,-168"/>
<polygon fill="black" stroke="black" points="3802.09,-171.5 3812.09,-168 3802.09,-164.5 3802.09,-171.5"/>
</g>
<!-- HttpClientCacheService -->
<g id="node47" class="node">
<title>HttpClientCacheService</title>
<ellipse fill="#fdb462" stroke="black" cx="1328" cy="-104" rx="104.79" ry="18"/>
<text text-anchor="middle" x="1328" y="-99.8" font-family="Times,serif" font-size="14.00">HttpClientCacheService</text>
</g>
<!-- HttpClientCacheService&#45;&gt;AppModule -->
<g id="edge47" class="edge">
<title>HttpClientCacheService&#45;&gt;AppModule</title>
<path fill="none" stroke="black" d="M1328,-122.11C1328,-141.34 1328,-169 1328,-169 1328,-169 3802.26,-169 3802.26,-169"/>
<polygon fill="black" stroke="black" points="3802.26,-172.5 3812.26,-169 3802.26,-165.5 3802.26,-172.5"/>
</g>
<!-- PagerService -->
<g id="node48" class="node">
<title>PagerService</title>
<ellipse fill="#fdb462" stroke="black" cx="1143" cy="-104" rx="61.95" ry="18"/>
<text text-anchor="middle" x="1143" y="-99.8" font-family="Times,serif" font-size="14.00">PagerService</text>
</g>
<!-- PagerService&#45;&gt;AppModule -->
<g id="edge48" class="edge">
<title>PagerService&#45;&gt;AppModule</title>
<path fill="none" stroke="black" d="M1143,-122.31C1143,-142.15 1143,-171 1143,-171 1143,-171 3802.23,-171 3802.23,-171"/>
<polygon fill="black" stroke="black" points="3802.23,-174.5 3812.23,-171 3802.23,-167.5 3802.23,-174.5"/>
</g>
<!-- RenderingService -->
<g id="node49" class="node">
<title>RenderingService</title>
<ellipse fill="#fdb462" stroke="black" cx="983" cy="-104" rx="80.44" ry="18"/>
<text text-anchor="middle" x="983" y="-99.8" font-family="Times,serif" font-size="14.00">RenderingService</text>
</g>
<!-- RenderingService&#45;&gt;AppModule -->
<g id="edge49" class="edge">
<title>RenderingService&#45;&gt;AppModule</title>
<path fill="none" stroke="black" d="M983,-122.22C983,-142.37 983,-172 983,-172 983,-172 3802.31,-172 3802.31,-172"/>
<polygon fill="black" stroke="black" points="3802.31,-175.5 3812.31,-172 3802.31,-168.5 3802.31,-175.5"/>
</g>
</g>
</svg>
