<?xml version="1.0" encoding="UTF-8" standalone="no"?>
<!DOCTYPE svg PUBLIC "-//W3C//DTD SVG 1.1//EN"
 "http://www.w3.org/Graphics/SVG/1.1/DTD/svg11.dtd">
<!-- Generated by graphviz version 2.47.3 (20210619.1520)
 -->
<!-- Title: dependencies Pages: 1 -->
<svg width="5498pt" height="247pt"
 viewBox="0.00 0.00 5498.00 246.80" xmlns="http://www.w3.org/2000/svg" xmlns:xlink="http://www.w3.org/1999/xlink">
<g id="graph0" class="graph" transform="scale(1 1) rotate(0) translate(4 242.8)">
<title>dependencies</title>
<polygon fill="white" stroke="transparent" points="-4,4 -4,-242.8 5494,-242.8 5494,4 -4,4"/>
<text text-anchor="middle" x="2745" y="-8.2" font-family="sans-serif" font-size="14.00">dependencies</text>
<g id="clust1" class="cluster">
<title>cluster_AppModule</title>
<polygon fill="none" stroke="black" stroke-dasharray="1,5" points="8,-32.8 8,-230.8 5482,-230.8 5482,-32.8 8,-32.8"/>
</g>
<g id="clust23" class="cluster">
<title>cluster_AppModule_imports</title>
<polygon fill="none" stroke="black" points="4944,-40.8 4944,-92.8 5474,-92.8 5474,-40.8 4944,-40.8"/>
</g>
<g id="clust24" class="cluster">
<title>cluster_AppModule_exports</title>
<polygon fill="none" stroke="black" points="2473,-170.8 2473,-222.8 3367,-222.8 3367,-170.8 2473,-170.8"/>
</g>
<g id="clust25" class="cluster">
<title>cluster_AppModule_bootstrap</title>
<polygon fill="none" stroke="black" points="3375,-170.8 3375,-222.8 3499,-222.8 3499,-170.8 3375,-170.8"/>
</g>
<g id="clust26" class="cluster">
<title>cluster_AppModule_providers</title>
<polygon fill="none" stroke="black" points="3825,-40.8 3825,-92.8 4936,-92.8 4936,-40.8 3825,-40.8"/>
</g>
<g id="clust2" class="cluster">
<title>cluster_AppModule_declarations</title>
<polygon fill="none" stroke="black" points="16,-40.8 16,-92.8 3817,-92.8 3817,-40.8 16,-40.8"/>
</g>
<!-- AgGridImageFormatterComponent -->
<g id="node1" class="node">
<title>AgGridImageFormatterComponent</title>
<polygon fill="#ffffb3" stroke="black" points="3809.28,-84.8 3594.72,-84.8 3594.72,-48.8 3809.28,-48.8 3809.28,-84.8"/>
<text text-anchor="middle" x="3702" y="-62.6" font-family="Times,serif" font-size="14.00">AgGridImageFormatterComponent</text>
</g>
<!-- AppModule -->
<g id="node21" class="node">
<title>AppModule</title>
<polygon fill="#8dd3c7" stroke="black" points="2995.66,-149.8 2992.66,-153.8 2971.66,-153.8 2968.66,-149.8 2912.34,-149.8 2912.34,-113.8 2995.66,-113.8 2995.66,-149.8"/>
<text text-anchor="middle" x="2954" y="-127.6" font-family="Times,serif" font-size="14.00">AppModule</text>
</g>
<!-- AgGridImageFormatterComponent&#45;&gt;AppModule -->
<g id="edge1" class="edge">
<title>AgGridImageFormatterComponent&#45;&gt;AppModule</title>
<path fill="none" stroke="black" d="M3702,-84.83C3702,-101.2 3702,-122.8 3702,-122.8 3702,-122.8 3005.82,-122.8 3005.82,-122.8"/>
<polygon fill="black" stroke="black" points="3005.82,-119.3 2995.82,-122.8 3005.82,-126.3 3005.82,-119.3"/>
</g>
<!-- AgGridTestComponent -->
<g id="node2" class="node">
<title>AgGridTestComponent</title>
<polygon fill="#ffffb3" stroke="black" points="3577.2,-84.8 3428.8,-84.8 3428.8,-48.8 3577.2,-48.8 3577.2,-84.8"/>
<text text-anchor="middle" x="3503" y="-62.6" font-family="Times,serif" font-size="14.00">AgGridTestComponent</text>
</g>
<!-- AgGridTestComponent&#45;&gt;AppModule -->
<g id="edge2" class="edge">
<title>AgGridTestComponent&#45;&gt;AppModule</title>
<path fill="none" stroke="black" d="M3460.18,-85.08C3460.18,-100.75 3460.18,-120.8 3460.18,-120.8 3460.18,-120.8 3005.85,-120.8 3005.85,-120.8"/>
<polygon fill="black" stroke="black" points="3005.85,-117.3 2995.85,-120.8 3005.85,-124.3 3005.85,-117.3"/>
</g>
<!-- AgGridToggleComponent -->
<g id="node3" class="node">
<title>AgGridToggleComponent</title>
<polygon fill="#ffffb3" stroke="black" points="3410.75,-84.8 3247.25,-84.8 3247.25,-48.8 3410.75,-48.8 3410.75,-84.8"/>
<text text-anchor="middle" x="3329" y="-62.6" font-family="Times,serif" font-size="14.00">AgGridToggleComponent</text>
</g>
<!-- AgGridToggleComponent&#45;&gt;AppModule -->
<g id="edge3" class="edge">
<title>AgGridToggleComponent&#45;&gt;AppModule</title>
<path fill="none" stroke="black" d="M3303.01,-84.99C3303.01,-99.98 3303.01,-118.8 3303.01,-118.8 3303.01,-118.8 3005.75,-118.8 3005.75,-118.8"/>
<polygon fill="black" stroke="black" points="3005.75,-115.3 2995.75,-118.8 3005.75,-122.3 3005.75,-115.3"/>
</g>
<!-- AppComponent -->
<g id="node4" class="node">
<title>AppComponent</title>
<polygon fill="#ffffb3" stroke="black" points="3228.94,-84.8 3123.06,-84.8 3123.06,-48.8 3228.94,-48.8 3228.94,-84.8"/>
<text text-anchor="middle" x="3176" y="-62.6" font-family="Times,serif" font-size="14.00">AppComponent</text>
</g>
<!-- AppComponent&#45;&gt;AppModule -->
<g id="edge4" class="edge">
<title>AppComponent&#45;&gt;AppModule</title>
<path fill="none" stroke="black" d="M3132.19,-84.85C3132.19,-99.17 3132.19,-116.8 3132.19,-116.8 3132.19,-116.8 3005.78,-116.8 3005.78,-116.8"/>
<polygon fill="black" stroke="black" points="3005.78,-113.3 2995.78,-116.8 3005.78,-120.3 3005.78,-113.3"/>
</g>
<!-- AppGateComponent -->
<g id="node5" class="node">
<title>AppGateComponent</title>
<polygon fill="#ffffb3" stroke="black" points="3104.87,-84.8 2973.13,-84.8 2973.13,-48.8 3104.87,-48.8 3104.87,-84.8"/>
<text text-anchor="middle" x="3039" y="-62.6" font-family="Times,serif" font-size="14.00">AppGateComponent</text>
</g>
<!-- AppGateComponent&#45;&gt;AppModule -->
<g id="edge5" class="edge">
<title>AppGateComponent&#45;&gt;AppModule</title>
<path fill="none" stroke="black" d="M2984.45,-84.91C2984.45,-84.91 2984.45,-103.79 2984.45,-103.79"/>
<polygon fill="black" stroke="black" points="2980.95,-103.79 2984.45,-113.79 2987.95,-103.79 2980.95,-103.79"/>
</g>
<!-- BarcodeScannerComponent -->
<g id="node6" class="node">
<title>BarcodeScannerComponent</title>
<polygon fill="#ffffb3" stroke="black" points="2955.56,-84.8 2782.44,-84.8 2782.44,-48.8 2955.56,-48.8 2955.56,-84.8"/>
<text text-anchor="middle" x="2869" y="-62.6" font-family="Times,serif" font-size="14.00">BarcodeScannerComponent</text>
</g>
<!-- BarcodeScannerComponent&#45;&gt;AppModule -->
<g id="edge6" class="edge">
<title>BarcodeScannerComponent&#45;&gt;AppModule</title>
<path fill="none" stroke="black" d="M2933.85,-84.91C2933.85,-84.91 2933.85,-103.79 2933.85,-103.79"/>
<polygon fill="black" stroke="black" points="2930.35,-103.79 2933.85,-113.79 2937.35,-103.79 2930.35,-103.79"/>
</g>
<!-- CategoriesAlternateComponent -->
<g id="node7" class="node">
<title>CategoriesAlternateComponent</title>
<polygon fill="#ffffb3" stroke="black" points="2764.78,-84.8 2571.22,-84.8 2571.22,-48.8 2764.78,-48.8 2764.78,-84.8"/>
<text text-anchor="middle" x="2668" y="-62.6" font-family="Times,serif" font-size="14.00">CategoriesAlternateComponent</text>
</g>
<!-- CategoriesAlternateComponent&#45;&gt;AppModule -->
<g id="edge7" class="edge">
<title>CategoriesAlternateComponent&#45;&gt;AppModule</title>
<path fill="none" stroke="black" d="M2682.73,-84.85C2682.73,-99.17 2682.73,-116.8 2682.73,-116.8 2682.73,-116.8 2902.21,-116.8 2902.21,-116.8"/>
<polygon fill="black" stroke="black" points="2902.21,-120.3 2912.21,-116.8 2902.21,-113.3 2902.21,-120.3"/>
</g>
<!-- ChangepasswordComponent -->
<g id="node8" class="node">
<title>ChangepasswordComponent</title>
<polygon fill="#ffffb3" stroke="black" points="2553.47,-84.8 2376.53,-84.8 2376.53,-48.8 2553.47,-48.8 2553.47,-84.8"/>
<text text-anchor="middle" x="2465" y="-62.6" font-family="Times,serif" font-size="14.00">ChangepasswordComponent</text>
</g>
<!-- ChangepasswordComponent&#45;&gt;AppModule -->
<g id="edge8" class="edge">
<title>ChangepasswordComponent&#45;&gt;AppModule</title>
<path fill="none" stroke="black" d="M2517.26,-84.99C2517.26,-99.98 2517.26,-118.8 2517.26,-118.8 2517.26,-118.8 2902.12,-118.8 2902.12,-118.8"/>
<polygon fill="black" stroke="black" points="2902.12,-122.3 2912.12,-118.8 2902.12,-115.3 2902.12,-122.3"/>
</g>
<!-- CurrencyFormatterDirective -->
<g id="node9" class="node">
<title>CurrencyFormatterDirective</title>
<polygon fill="#ffffb3" stroke="black" points="2358.88,-84.8 2183.12,-84.8 2183.12,-48.8 2358.88,-48.8 2358.88,-84.8"/>
<text text-anchor="middle" x="2271" y="-62.6" font-family="Times,serif" font-size="14.00">CurrencyFormatterDirective</text>
</g>
<!-- CurrencyFormatterDirective&#45;&gt;AppModule -->
<g id="edge9" class="edge">
<title>CurrencyFormatterDirective&#45;&gt;AppModule</title>
<path fill="none" stroke="black" d="M2271,-85.08C2271,-100.75 2271,-120.8 2271,-120.8 2271,-120.8 2902.3,-120.8 2902.3,-120.8"/>
<polygon fill="black" stroke="black" points="2902.3,-124.3 2912.3,-120.8 2902.3,-117.3 2902.3,-124.3"/>
</g>
<!-- DsiEMVPaymentComponent -->
<g id="node10" class="node">
<title>DsiEMVPaymentComponent</title>
<polygon fill="#ffffb3" stroke="black" points="2165.37,-84.8 1984.63,-84.8 1984.63,-48.8 2165.37,-48.8 2165.37,-84.8"/>
<text text-anchor="middle" x="2075" y="-62.6" font-family="Times,serif" font-size="14.00">DsiEMVPaymentComponent</text>
</g>
<!-- DsiEMVPaymentComponent&#45;&gt;AppModule -->
<g id="edge10" class="edge">
<title>DsiEMVPaymentComponent&#45;&gt;AppModule</title>
<path fill="none" stroke="black" d="M2075,-84.83C2075,-101.2 2075,-122.8 2075,-122.8 2075,-122.8 2902.2,-122.8 2902.2,-122.8"/>
<polygon fill="black" stroke="black" points="2902.2,-126.3 2912.2,-122.8 2902.2,-119.3 2902.2,-126.3"/>
</g>
<!-- LoginComponent -->
<g id="node11" class="node">
<title>LoginComponent</title>
<polygon fill="#ffffb3" stroke="black" points="1966.28,-84.8 1851.72,-84.8 1851.72,-48.8 1966.28,-48.8 1966.28,-84.8"/>
<text text-anchor="middle" x="1909" y="-62.6" font-family="Times,serif" font-size="14.00">LoginComponent</text>
</g>
<!-- LoginComponent&#45;&gt;AppModule -->
<g id="edge11" class="edge">
<title>LoginComponent&#45;&gt;AppModule</title>
<path fill="none" stroke="black" d="M1909,-84.83C1909,-101.86 1909,-124.8 1909,-124.8 1909,-124.8 2902.07,-124.8 2902.07,-124.8"/>
<polygon fill="black" stroke="black" points="2902.07,-128.3 2912.07,-124.8 2902.07,-121.3 2902.07,-128.3"/>
</g>
<!-- PriceTiersComponent -->
<g id="node12" class="node">
<title>PriceTiersComponent</title>
<polygon fill="#ffffb3" stroke="black" points="1833.36,-84.8 1694.64,-84.8 1694.64,-48.8 1833.36,-48.8 1833.36,-84.8"/>
<text text-anchor="middle" x="1764" y="-62.6" font-family="Times,serif" font-size="14.00">PriceTiersComponent</text>
</g>
<!-- PriceTiersComponent&#45;&gt;AppModule -->
<g id="edge12" class="edge">
<title>PriceTiersComponent&#45;&gt;AppModule</title>
<path fill="none" stroke="black" d="M1764,-84.8C1764,-102.48 1764,-126.8 1764,-126.8 1764,-126.8 2902,-126.8 2902,-126.8"/>
<polygon fill="black" stroke="black" points="2902,-130.3 2912,-126.8 2902,-123.3 2902,-130.3"/>
</g>
<!-- RegisterAccountExistingUserComponent -->
<g id="node13" class="node">
<title>RegisterAccountExistingUserComponent</title>
<polygon fill="#ffffb3" stroke="black" points="1676.01,-84.8 1427.99,-84.8 1427.99,-48.8 1676.01,-48.8 1676.01,-84.8"/>
<text text-anchor="middle" x="1552" y="-62.6" font-family="Times,serif" font-size="14.00">RegisterAccountExistingUserComponent</text>
</g>
<!-- RegisterAccountExistingUserComponent&#45;&gt;AppModule -->
<g id="edge13" class="edge">
<title>RegisterAccountExistingUserComponent&#45;&gt;AppModule</title>
<path fill="none" stroke="black" d="M1552,-85.07C1552,-103.36 1552,-128.8 1552,-128.8 1552,-128.8 2902.04,-128.8 2902.04,-128.8"/>
<polygon fill="black" stroke="black" points="2902.04,-132.3 2912.04,-128.8 2902.04,-125.3 2902.04,-132.3"/>
</g>
<!-- RegisterAccountExistingUserWithTokenComponent -->
<g id="node14" class="node">
<title>RegisterAccountExistingUserWithTokenComponent</title>
<polygon fill="#ffffb3" stroke="black" points="1410.27,-84.8 1097.73,-84.8 1097.73,-48.8 1410.27,-48.8 1410.27,-84.8"/>
<text text-anchor="middle" x="1254" y="-62.6" font-family="Times,serif" font-size="14.00">RegisterAccountExistingUserWithTokenComponent</text>
</g>
<!-- RegisterAccountExistingUserWithTokenComponent&#45;&gt;AppModule -->
<g id="edge14" class="edge">
<title>RegisterAccountExistingUserWithTokenComponent&#45;&gt;AppModule</title>
<path fill="none" stroke="black" d="M1254,-84.97C1254,-103.89 1254,-130.8 1254,-130.8 1254,-130.8 2901.98,-130.8 2901.98,-130.8"/>
<polygon fill="black" stroke="black" points="2901.98,-134.3 2911.98,-130.8 2901.98,-127.3 2901.98,-134.3"/>
</g>
<!-- RegisterAccountMainComponent -->
<g id="node15" class="node">
<title>RegisterAccountMainComponent</title>
<polygon fill="#ffffb3" stroke="black" points="1079.46,-84.8 874.54,-84.8 874.54,-48.8 1079.46,-48.8 1079.46,-84.8"/>
<text text-anchor="middle" x="977" y="-62.6" font-family="Times,serif" font-size="14.00">RegisterAccountMainComponent</text>
</g>
<!-- RegisterAccountMainComponent&#45;&gt;AppModule -->
<g id="edge15" class="edge">
<title>RegisterAccountMainComponent&#45;&gt;AppModule</title>
<path fill="none" stroke="black" d="M977,-85.11C977,-104.95 977,-133.8 977,-133.8 977,-133.8 2902.25,-133.8 2902.25,-133.8"/>
<polygon fill="black" stroke="black" points="2902.25,-137.3 2912.25,-133.8 2902.25,-130.3 2902.25,-137.3"/>
</g>
<!-- ResetpasswordComponent -->
<g id="node16" class="node">
<title>ResetpasswordComponent</title>
<polygon fill="#ffffb3" stroke="black" points="856.8,-84.8 691.2,-84.8 691.2,-48.8 856.8,-48.8 856.8,-84.8"/>
<text text-anchor="middle" x="774" y="-62.6" font-family="Times,serif" font-size="14.00">ResetpasswordComponent</text>
</g>
<!-- ResetpasswordComponent&#45;&gt;AppModule -->
<g id="edge16" class="edge">
<title>ResetpasswordComponent&#45;&gt;AppModule</title>
<path fill="none" stroke="black" d="M774,-84.93C774,-105.37 774,-135.8 774,-135.8 774,-135.8 2901.92,-135.8 2901.92,-135.8"/>
<polygon fill="black" stroke="black" points="2901.92,-139.3 2911.92,-135.8 2901.92,-132.3 2901.92,-139.3"/>
</g>
<!-- SafeHtmlPipe -->
<g id="node17" class="node">
<title>SafeHtmlPipe</title>
<polygon fill="#ffffb3" stroke="black" points="673.04,-84.8 578.96,-84.8 578.96,-48.8 673.04,-48.8 673.04,-84.8"/>
<text text-anchor="middle" x="626" y="-62.6" font-family="Times,serif" font-size="14.00">SafeHtmlPipe</text>
</g>
<!-- SafeHtmlPipe&#45;&gt;AppModule -->
<g id="edge17" class="edge">
<title>SafeHtmlPipe&#45;&gt;AppModule</title>
<path fill="none" stroke="black" d="M626,-85.08C626,-106.12 626,-137.8 626,-137.8 626,-137.8 2902.11,-137.8 2902.11,-137.8"/>
<polygon fill="black" stroke="black" points="2902.11,-141.3 2912.11,-137.8 2902.11,-134.3 2902.11,-141.3"/>
</g>
<!-- TruncateTextPipe -->
<g id="node18" class="node">
<title>TruncateTextPipe</title>
<polygon fill="#ffffb3" stroke="black" points="561.29,-84.8 444.71,-84.8 444.71,-48.8 561.29,-48.8 561.29,-84.8"/>
<text text-anchor="middle" x="503" y="-62.6" font-family="Times,serif" font-size="14.00">TruncateTextPipe</text>
</g>
<!-- TruncateTextPipe&#45;&gt;AppModule -->
<g id="edge18" class="edge">
<title>TruncateTextPipe&#45;&gt;AppModule</title>
<path fill="none" stroke="black" d="M503,-84.84C503,-106.46 503,-139.8 503,-139.8 503,-139.8 2902.23,-139.8 2902.23,-139.8"/>
<polygon fill="black" stroke="black" points="2902.23,-143.3 2912.23,-139.8 2902.23,-136.3 2902.23,-143.3"/>
</g>
<!-- TvPriceSpecialsComponent -->
<g id="node19" class="node">
<title>TvPriceSpecialsComponent</title>
<polygon fill="#ffffb3" stroke="black" points="427.3,-84.8 254.7,-84.8 254.7,-48.8 427.3,-48.8 427.3,-84.8"/>
<text text-anchor="middle" x="341" y="-62.6" font-family="Times,serif" font-size="14.00">TvPriceSpecialsComponent</text>
</g>
<!-- TvPriceSpecialsComponent&#45;&gt;AppModule -->
<g id="edge19" class="edge">
<title>TvPriceSpecialsComponent&#45;&gt;AppModule</title>
<path fill="none" stroke="black" d="M341,-84.96C341,-107.15 341,-141.8 341,-141.8 341,-141.8 2902.16,-141.8 2902.16,-141.8"/>
<polygon fill="black" stroke="black" points="2902.16,-145.3 2912.16,-141.8 2902.16,-138.3 2902.16,-145.3"/>
</g>
<!-- TvPriceTierMenuItemsComponent -->
<g id="node20" class="node">
<title>TvPriceTierMenuItemsComponent</title>
<polygon fill="#ffffb3" stroke="black" points="236.23,-84.8 23.77,-84.8 23.77,-48.8 236.23,-48.8 236.23,-84.8"/>
<text text-anchor="middle" x="130" y="-62.6" font-family="Times,serif" font-size="14.00">TvPriceTierMenuItemsComponent</text>
</g>
<!-- TvPriceTierMenuItemsComponent&#45;&gt;AppModule -->
<g id="edge20" class="edge">
<title>TvPriceTierMenuItemsComponent&#45;&gt;AppModule</title>
<path fill="none" stroke="black" d="M130,-85.05C130,-107.82 130,-143.8 130,-143.8 130,-143.8 2902.16,-143.8 2902.16,-143.8"/>
<polygon fill="black" stroke="black" points="2902.16,-147.3 2912.16,-143.8 2902.16,-140.3 2902.16,-147.3"/>
</g>
<!-- AgGridImageFormatterComponent  -->
<g id="node26" class="node">
<title>AgGridImageFormatterComponent </title>
<polygon fill="#fb8072" stroke="black" points="3358.78,-214.8 3141.22,-214.8 3141.22,-178.8 3358.78,-178.8 3358.78,-214.8"/>
<text text-anchor="middle" x="3250" y="-192.6" font-family="Times,serif" font-size="14.00">AgGridImageFormatterComponent </text>
</g>
<!-- AppModule&#45;&gt;AgGridImageFormatterComponent  -->
<g id="edge25" class="edge">
<title>AppModule&#45;&gt;AgGridImageFormatterComponent </title>
<path fill="none" stroke="black" stroke-dasharray="5,2" d="M2995.82,-147.8C3062.36,-147.8 3184.91,-147.8 3184.91,-147.8 3184.91,-147.8 3184.91,-168.55 3184.91,-168.55"/>
<polygon fill="black" stroke="black" points="3181.41,-168.55 3184.91,-178.55 3188.41,-168.55 3181.41,-168.55"/>
</g>
<!-- AgGridToggleComponent  -->
<g id="node27" class="node">
<title>AgGridToggleComponent </title>
<polygon fill="#fb8072" stroke="black" points="3122.75,-214.8 2955.25,-214.8 2955.25,-178.8 3122.75,-178.8 3122.75,-214.8"/>
<text text-anchor="middle" x="3039" y="-192.6" font-family="Times,serif" font-size="14.00">AgGridToggleComponent </text>
</g>
<!-- AppModule&#45;&gt;AgGridToggleComponent  -->
<g id="edge26" class="edge">
<title>AppModule&#45;&gt;AgGridToggleComponent </title>
<path fill="none" stroke="black" stroke-dasharray="5,2" d="M2975.6,-149.91C2975.6,-149.91 2975.6,-168.79 2975.6,-168.79"/>
<polygon fill="black" stroke="black" points="2972.1,-168.79 2975.6,-178.79 2979.1,-168.79 2972.1,-168.79"/>
</g>
<!-- AppMaterialModule  -->
<g id="node28" class="node">
<title>AppMaterialModule </title>
<polygon fill="#fb8072" stroke="black" points="2937.08,-214.8 2802.92,-214.8 2802.92,-178.8 2937.08,-178.8 2937.08,-214.8"/>
<text text-anchor="middle" x="2870" y="-192.6" font-family="Times,serif" font-size="14.00">AppMaterialModule </text>
</g>
<!-- AppModule&#45;&gt;AppMaterialModule  -->
<g id="edge27" class="edge">
<title>AppModule&#45;&gt;AppMaterialModule </title>
<path fill="none" stroke="black" stroke-dasharray="5,2" d="M2924.73,-149.91C2924.73,-149.91 2924.73,-168.79 2924.73,-168.79"/>
<polygon fill="black" stroke="black" points="2921.23,-168.79 2924.73,-178.79 2928.23,-168.79 2921.23,-168.79"/>
</g>
<!-- DsiEMVPaymentComponent  -->
<g id="node29" class="node">
<title>DsiEMVPaymentComponent </title>
<polygon fill="#fb8072" stroke="black" points="2785.37,-214.8 2600.63,-214.8 2600.63,-178.8 2785.37,-178.8 2785.37,-214.8"/>
<text text-anchor="middle" x="2693" y="-192.6" font-family="Times,serif" font-size="14.00">DsiEMVPaymentComponent </text>
</g>
<!-- AppModule&#45;&gt;DsiEMVPaymentComponent  -->
<g id="edge28" class="edge">
<title>AppModule&#45;&gt;DsiEMVPaymentComponent </title>
<path fill="none" stroke="black" stroke-dasharray="5,2" d="M2912.15,-147.8C2858.84,-147.8 2773.56,-147.8 2773.56,-147.8 2773.56,-147.8 2773.56,-168.55 2773.56,-168.55"/>
<polygon fill="black" stroke="black" points="2770.06,-168.55 2773.56,-178.55 2777.06,-168.55 2770.06,-168.55"/>
</g>
<!-- SharedModule  -->
<g id="node30" class="node">
<title>SharedModule </title>
<polygon fill="#fb8072" stroke="black" points="2582.92,-214.8 2481.08,-214.8 2481.08,-178.8 2582.92,-178.8 2582.92,-214.8"/>
<text text-anchor="middle" x="2532" y="-192.6" font-family="Times,serif" font-size="14.00">SharedModule </text>
</g>
<!-- AppModule&#45;&gt;SharedModule  -->
<g id="edge29" class="edge">
<title>AppModule&#45;&gt;SharedModule </title>
<path fill="none" stroke="black" stroke-dasharray="5,2" d="M2912.23,-145.8C2814.12,-145.8 2577.16,-145.8 2577.16,-145.8 2577.16,-145.8 2577.16,-168.68 2577.16,-168.68"/>
<polygon fill="black" stroke="black" points="2573.66,-168.68 2577.16,-178.68 2580.66,-168.68 2573.66,-168.68"/>
</g>
<!-- AppComponent  -->
<g id="node31" class="node">
<title>AppComponent </title>
<polygon fill="#80b1d3" stroke="black" points="3491.44,-214.8 3382.56,-214.8 3382.56,-178.8 3491.44,-178.8 3491.44,-214.8"/>
<text text-anchor="middle" x="3437" y="-192.6" font-family="Times,serif" font-size="14.00">AppComponent </text>
</g>
<!-- AppModule&#45;&gt;AppComponent  -->
<g id="edge30" class="edge">
<title>AppModule&#45;&gt;AppComponent </title>
<path fill="none" stroke="black" stroke-dasharray="1,5" d="M2996.05,-145.8C3106.55,-145.8 3396.7,-145.8 3396.7,-145.8 3396.7,-145.8 3396.7,-168.68 3396.7,-168.68"/>
<polygon fill="black" stroke="black" points="3393.2,-168.68 3396.7,-178.68 3400.2,-168.68 3393.2,-168.68"/>
</g>
<!-- AppMaterialModule -->
<g id="node22" class="node">
<title>AppMaterialModule</title>
<polygon fill="#8dd3c7" stroke="black" points="5465.58,-84.8 5462.58,-88.8 5441.58,-88.8 5438.58,-84.8 5334.42,-84.8 5334.42,-48.8 5465.58,-48.8 5465.58,-84.8"/>
<text text-anchor="middle" x="5400" y="-62.6" font-family="Times,serif" font-size="14.00">AppMaterialModule</text>
</g>
<!-- AppMaterialModule&#45;&gt;AppModule -->
<g id="edge21" class="edge">
<title>AppMaterialModule&#45;&gt;AppModule</title>
<path fill="none" stroke="black" d="M5400,-85.05C5400,-107.82 5400,-143.8 5400,-143.8 5400,-143.8 3005.68,-143.8 3005.68,-143.8"/>
<polygon fill="black" stroke="black" points="3005.68,-140.3 2995.68,-143.8 3005.68,-147.3 3005.68,-140.3"/>
</g>
<!-- AppRoutingModule -->
<g id="node23" class="node">
<title>AppRoutingModule</title>
<polygon fill="#8dd3c7" stroke="black" points="5316.27,-84.8 5313.27,-88.8 5292.27,-88.8 5289.27,-84.8 5187.73,-84.8 5187.73,-48.8 5316.27,-48.8 5316.27,-84.8"/>
<text text-anchor="middle" x="5252" y="-62.6" font-family="Times,serif" font-size="14.00">AppRoutingModule</text>
</g>
<!-- AppRoutingModule&#45;&gt;AppModule -->
<g id="edge22" class="edge">
<title>AppRoutingModule&#45;&gt;AppModule</title>
<path fill="none" stroke="black" d="M5252,-84.96C5252,-107.15 5252,-141.8 5252,-141.8 5252,-141.8 3005.85,-141.8 3005.85,-141.8"/>
<polygon fill="black" stroke="black" points="3005.85,-138.3 2995.85,-141.8 3005.85,-145.3 3005.85,-138.3"/>
</g>
<!-- DefaultModule -->
<g id="node24" class="node">
<title>DefaultModule</title>
<polygon fill="#8dd3c7" stroke="black" points="5169.53,-84.8 5166.53,-88.8 5145.53,-88.8 5142.53,-84.8 5068.47,-84.8 5068.47,-48.8 5169.53,-48.8 5169.53,-84.8"/>
<text text-anchor="middle" x="5119" y="-62.6" font-family="Times,serif" font-size="14.00">DefaultModule</text>
</g>
<!-- DefaultModule&#45;&gt;AppModule -->
<g id="edge23" class="edge">
<title>DefaultModule&#45;&gt;AppModule</title>
<path fill="none" stroke="black" d="M5119,-84.84C5119,-106.46 5119,-139.8 5119,-139.8 5119,-139.8 3005.79,-139.8 3005.79,-139.8"/>
<polygon fill="black" stroke="black" points="3005.79,-136.3 2995.79,-139.8 3005.79,-143.3 3005.79,-136.3"/>
</g>
<!-- SharedModule -->
<g id="node25" class="node">
<title>SharedModule</title>
<polygon fill="#8dd3c7" stroke="black" points="5050.42,-84.8 5047.42,-88.8 5026.42,-88.8 5023.42,-84.8 4951.58,-84.8 4951.58,-48.8 5050.42,-48.8 5050.42,-84.8"/>
<text text-anchor="middle" x="5001" y="-62.6" font-family="Times,serif" font-size="14.00">SharedModule</text>
</g>
<!-- SharedModule&#45;&gt;AppModule -->
<g id="edge24" class="edge">
<title>SharedModule&#45;&gt;AppModule</title>
<path fill="none" stroke="black" d="M5001,-85.08C5001,-106.12 5001,-137.8 5001,-137.8 5001,-137.8 3005.82,-137.8 3005.82,-137.8"/>
<polygon fill="black" stroke="black" points="3005.82,-134.3 2995.82,-137.8 3005.82,-141.3 3005.82,-134.3"/>
</g>
<!-- BasicAuthInterceptor -->
<g id="node32" class="node">
<title>BasicAuthInterceptor</title>
<ellipse fill="#fdb462" stroke="black" cx="4834" cy="-66.8" rx="94.32" ry="18"/>
<text text-anchor="middle" x="4834" y="-62.6" font-family="Times,serif" font-size="14.00">BasicAuthInterceptor</text>
</g>
<!-- BasicAuthInterceptor&#45;&gt;AppModule -->
<g id="edge31" class="edge">
<title>BasicAuthInterceptor&#45;&gt;AppModule</title>
<path fill="none" stroke="black" d="M4834,-84.93C4834,-105.37 4834,-135.8 4834,-135.8 4834,-135.8 3005.9,-135.8 3005.9,-135.8"/>
<polygon fill="black" stroke="black" points="3005.9,-132.3 2995.9,-135.8 3005.9,-139.3 3005.9,-132.3"/>
</g>
<!-- CacheClientService -->
<g id="node33" class="node">
<title>CacheClientService</title>
<ellipse fill="#fdb462" stroke="black" cx="4634" cy="-66.8" rx="87.95" ry="18"/>
<text text-anchor="middle" x="4634" y="-62.6" font-family="Times,serif" font-size="14.00">CacheClientService</text>
</g>
<!-- CacheClientService&#45;&gt;AppModule -->
<g id="edge32" class="edge">
<title>CacheClientService&#45;&gt;AppModule</title>
<path fill="none" stroke="black" d="M4634,-85.11C4634,-104.95 4634,-133.8 4634,-133.8 4634,-133.8 3005.95,-133.8 3005.95,-133.8"/>
<polygon fill="black" stroke="black" points="3005.95,-130.3 2995.95,-133.8 3005.95,-137.3 3005.95,-130.3"/>
</g>
<!-- ErrorInterceptor -->
<g id="node34" class="node">
<title>ErrorInterceptor</title>
<ellipse fill="#fdb462" stroke="black" cx="4455" cy="-66.8" rx="73.53" ry="18"/>
<text text-anchor="middle" x="4455" y="-62.6" font-family="Times,serif" font-size="14.00">ErrorInterceptor</text>
</g>
<!-- ErrorInterceptor&#45;&gt;AppModule -->
<g id="edge33" class="edge">
<title>ErrorInterceptor&#45;&gt;AppModule</title>
<path fill="none" stroke="black" d="M4455,-84.97C4455,-103.89 4455,-130.8 4455,-130.8 4455,-130.8 3005.71,-130.8 3005.71,-130.8"/>
<polygon fill="black" stroke="black" points="3005.71,-127.3 2995.71,-130.8 3005.71,-134.3 3005.71,-127.3"/>
</g>
<!-- HttpClientCacheService -->
<g id="node35" class="node">
<title>HttpClientCacheService</title>
<ellipse fill="#fdb462" stroke="black" cx="4258" cy="-66.8" rx="104.79" ry="18"/>
<text text-anchor="middle" x="4258" y="-62.6" font-family="Times,serif" font-size="14.00">HttpClientCacheService</text>
</g>
<!-- HttpClientCacheService&#45;&gt;AppModule -->
<g id="edge34" class="edge">
<title>HttpClientCacheService&#45;&gt;AppModule</title>
<path fill="none" stroke="black" d="M4258,-85.07C4258,-103.36 4258,-128.8 4258,-128.8 4258,-128.8 3005.91,-128.8 3005.91,-128.8"/>
<polygon fill="black" stroke="black" points="3005.91,-125.3 2995.91,-128.8 3005.91,-132.3 3005.91,-125.3"/>
</g>
<!-- PagerService -->
<g id="node36" class="node">
<title>PagerService</title>
<ellipse fill="#fdb462" stroke="black" cx="4073" cy="-66.8" rx="61.95" ry="18"/>
<text text-anchor="middle" x="4073" y="-62.6" font-family="Times,serif" font-size="14.00">PagerService</text>
</g>
<!-- PagerService&#45;&gt;AppModule -->
<g id="edge35" class="edge">
<title>PagerService&#45;&gt;AppModule</title>
<path fill="none" stroke="black" d="M4073,-84.8C4073,-102.48 4073,-126.8 4073,-126.8 4073,-126.8 3005.82,-126.8 3005.82,-126.8"/>
<polygon fill="black" stroke="black" points="3005.82,-123.3 2995.82,-126.8 3005.82,-130.3 3005.82,-123.3"/>
</g>
<!-- RenderingService -->
<g id="node37" class="node">
<title>RenderingService</title>
<ellipse fill="#fdb462" stroke="black" cx="3913" cy="-66.8" rx="80.44" ry="18"/>
<text text-anchor="middle" x="3913" y="-62.6" font-family="Times,serif" font-size="14.00">RenderingService</text>
</g>
<!-- RenderingService&#45;&gt;AppModule -->
<g id="edge36" class="edge">
<title>RenderingService&#45;&gt;AppModule</title>
<path fill="none" stroke="black" d="M3913,-84.83C3913,-101.86 3913,-124.8 3913,-124.8 3913,-124.8 3005.82,-124.8 3005.82,-124.8"/>
<polygon fill="black" stroke="black" points="3005.82,-121.3 2995.82,-124.8 3005.82,-128.3 3005.82,-121.3"/>
</g>
</g>
</svg>
